# Blender 3.3.1
# www.blender.org
mtllib button.mtl
o Cube
v 0.754727 -0.247917 -1.000000
v 1.000000 -0.247917 -0.754727
v 0.830521 -0.247917 -0.987996
v 0.898842 -0.246065 -0.953085
v 0.953085 -0.246065 -0.898842
v 0.987996 -0.247917 -0.830521
v 1.000000 -0.247917 0.754727
v 0.754727 -0.247917 1.000000
v 0.987996 -0.247917 0.830521
v 0.953157 -0.247917 0.898895
v 0.898895 -0.247917 0.953157
v 0.830521 -0.247917 0.987996
v -1.000000 -0.247917 -0.754727
v -0.754727 -0.247917 -1.000000
v -0.987996 -0.247917 -0.830521
v -0.953157 -0.247917 -0.898895
v -0.898895 -0.247917 -0.953157
v -0.830521 -0.247917 -0.987996
v -0.754727 -0.247917 1.000000
v -1.000000 -0.247917 0.754727
v -0.830521 -0.247917 0.987996
v -0.898895 -0.247917 0.953157
v -0.953157 -0.247917 0.898895
v -0.987996 -0.247917 0.830521
v 0.871544 0.017477 -0.360843
v 0.994442 -0.012813 -0.408043
v 0.932731 0.013418 -0.368095
v 0.977715 0.002331 -0.385372
v 0.360843 0.017479 -0.871544
v 0.408043 -0.012813 -0.994442
v 0.368095 0.013419 -0.932731
v 0.385372 0.002331 -0.977715
v 0.856654 0.017363 -0.719742
v 0.979390 -0.012951 -0.746265
v 0.917616 0.013288 -0.729029
v 0.962541 0.002192 -0.738737
v 0.832444 0.017113 -0.831416
v 0.945231 -0.012468 -0.893130
v 0.888465 0.013419 -0.862002
v 0.929748 0.002592 -0.884591
v 0.831416 0.017113 -0.832444
v 0.893130 -0.012468 -0.945231
v 0.862002 0.013419 -0.888465
v 0.884591 0.002592 -0.929748
v 0.719741 0.017333 -0.856644
v 0.746265 -0.012951 -0.979390
v 0.729029 0.013273 -0.917611
v 0.738737 0.002188 -0.962539
v 0.360851 0.017590 0.871549
v 0.408014 -0.012686 0.994446
v 0.368096 0.013535 0.932736
v 0.385359 0.002453 0.977719
v 0.871549 0.017596 0.360851
v 0.994446 -0.012682 0.408007
v 0.932736 0.013539 0.368096
v 0.977719 0.002456 0.385356
v 0.719831 0.017591 0.856659
v 0.746270 -0.012690 0.979405
v 0.729080 0.013535 0.917627
v 0.738758 0.002451 0.962556
v 0.831432 0.017593 0.832460
v 0.893166 -0.012699 0.945272
v 0.862029 0.013535 0.888494
v 0.884625 0.002447 0.929786
v 0.832460 0.017593 0.831432
v 0.945272 -0.012698 0.893166
v 0.888494 0.013535 0.862029
v 0.929786 0.002448 0.884625
v 0.856659 0.017597 0.719831
v 0.979405 -0.012687 0.746269
v 0.917627 0.013538 0.729080
v 0.962556 0.002453 0.738757
v -0.360851 0.017597 -0.871549
v -0.408007 -0.012682 -0.994446
v -0.368096 0.013539 -0.932736
v -0.385356 0.002456 -0.977719
v -0.871549 0.017590 -0.360851
v -0.994446 -0.012686 -0.408014
v -0.932736 0.013535 -0.368096
v -0.977719 0.002453 -0.385359
v -0.719831 0.017596 -0.856659
v -0.746269 -0.012687 -0.979405
v -0.729080 0.013538 -0.917627
v -0.738757 0.002453 -0.962556
v -0.831432 0.017593 -0.832460
v -0.893166 -0.012698 -0.945272
v -0.862029 0.013535 -0.888494
v -0.884625 0.002448 -0.929786
v -0.832460 0.017593 -0.831432
v -0.945272 -0.012699 -0.893166
v -0.888494 0.013535 -0.862029
v -0.929786 0.002447 -0.884625
v -0.856659 0.017590 -0.719831
v -0.979405 -0.012690 -0.746270
v -0.917627 0.013535 -0.729080
v -0.962556 0.002451 -0.738758
v -0.871549 0.017590 0.360851
v -0.994446 -0.012687 0.408014
v -0.932736 0.013535 0.368096
v -0.977719 0.002453 0.385359
v -0.360851 0.017590 0.871549
v -0.408014 -0.012687 0.994446
v -0.368096 0.013535 0.932736
v -0.385359 0.002453 0.977719
v -0.856659 0.017589 0.719831
v -0.979406 -0.012691 0.746270
v -0.917628 0.013534 0.729080
v -0.962556 0.002451 0.738758
v -0.832460 0.017593 0.831432
v -0.945272 -0.012701 0.893166
v -0.888494 0.013535 0.862029
v -0.929786 0.002446 0.884625
v -0.831432 0.017593 0.832460
v -0.893166 -0.012701 0.945272
v -0.862029 0.013535 0.888494
v -0.884625 0.002446 0.929786
v -0.719831 0.017590 0.856659
v -0.746270 -0.012691 0.979406
v -0.729080 0.013534 0.917628
v -0.738758 0.002451 0.962556
vn -0.0000 -1.0000 -0.0000
vn -0.3038 0.0913 -0.9483
vn 0.9939 0.0893 0.0649
vn 0.0650 0.0895 -0.9939
vn -0.0000 1.0000 -0.0001
vn 0.9997 0.0236 -0.0000
vn 0.7065 0.0410 -0.7065
vn 0.3034 0.0916 -0.9484
vn 0.0649 0.0894 0.9939
vn -0.0000 0.0236 -0.9997
vn -0.9483 0.0913 0.3038
vn -0.3038 0.0913 0.9483
vn -0.7065 0.0409 0.7065
vn -0.0649 0.0893 0.9939
vn -0.0000 0.0236 0.9997
vn 0.7065 0.0409 0.7065
vn 0.9483 0.0913 0.3038
vn -0.0649 0.0893 -0.9939
vn 0.3038 0.0913 0.9483
vn -0.9939 0.0894 -0.0649
vn -0.7065 0.0409 -0.7065
vn -0.9483 0.0913 -0.3038
vn -0.9939 0.0894 0.0649
vn -0.9997 0.0236 -0.0000
vn 0.9484 0.0916 -0.3034
vn 0.0660 0.9978 -0.0031
vn 0.2366 0.9716 -0.0104
vn 0.6551 0.7550 -0.0289
vn 0.0615 0.9980 -0.0139
vn 0.2289 0.9722 -0.0490
vn 0.6366 0.7577 -0.1433
vn 0.0426 0.9982 -0.0426
vn 0.1648 0.9724 -0.1648
vn 0.4691 0.7483 -0.4691
vn 0.0137 0.9980 -0.0615
vn 0.0489 0.9722 -0.2288
vn 0.1433 0.7578 -0.6366
vn 0.0032 0.9978 -0.0659
vn 0.0104 0.9716 -0.2365
vn 0.0289 0.7551 -0.6550
vn -0.0027 0.9978 0.0659
vn -0.0100 0.9716 0.2365
vn -0.0286 0.7550 0.6551
vn -0.0140 0.9978 0.0644
vn -0.0512 0.9717 0.2307
vn -0.1456 0.7571 0.6369
vn -0.0467 0.9978 0.0467
vn -0.1686 0.9712 0.1686
vn -0.4706 0.7464 0.4706
vn -0.0644 0.9978 0.0140
vn -0.2307 0.9717 0.0512
vn -0.6369 0.7571 0.1456
vn -0.0659 0.9978 0.0027
vn -0.2365 0.9716 0.0100
vn -0.6551 0.7550 0.0286
vn 0.0027 0.9978 0.0659
vn 0.0100 0.9716 0.2365
vn 0.0286 0.7550 0.6551
vn 0.0140 0.9978 0.0644
vn 0.0512 0.9717 0.2307
vn 0.1456 0.7571 0.6369
vn 0.0467 0.9978 0.0467
vn 0.1685 0.9712 0.1685
vn 0.4705 0.7464 0.4706
vn 0.0644 0.9978 0.0141
vn 0.2307 0.9717 0.0512
vn 0.6369 0.7571 0.1456
vn 0.0659 0.9978 0.0027
vn 0.2365 0.9716 0.0100
vn 0.6551 0.7550 0.0286
vn -0.0027 0.9978 -0.0659
vn -0.0100 0.9716 -0.2365
vn -0.0286 0.7550 -0.6551
vn -0.0141 0.9978 -0.0644
vn -0.0512 0.9717 -0.2307
vn -0.1456 0.7571 -0.6369
vn -0.0467 0.9978 -0.0467
vn -0.1685 0.9712 -0.1685
vn -0.4705 0.7464 -0.4705
vn -0.0644 0.9978 -0.0140
vn -0.2307 0.9717 -0.0512
vn -0.6369 0.7571 -0.1456
vn -0.0659 0.9978 -0.0027
vn -0.2365 0.9716 -0.0100
vn -0.6551 0.7550 -0.0286
vn 0.0002 0.9978 -0.0662
vn 0.0002 0.9710 -0.2393
vn 0.0001 0.7414 -0.6711
vn 0.0662 0.9978 -0.0002
vn 0.2393 0.9710 -0.0002
vn 0.6711 0.7414 -0.0001
vn -0.6711 0.7414 -0.0000
vn -0.2392 0.9710 -0.0000
vn -0.0661 0.9978 -0.0000
vn -0.0000 0.7414 0.6711
vn -0.0000 0.9710 0.2392
vn -0.0000 0.9978 0.0661
vn 0.9939 0.0895 -0.0650
vt 0.344341 0.500000
vt 0.375000 0.469341
vt 0.375000 0.530659
vt 0.353815 0.501501
vt 0.375000 0.478815
vt 0.362362 0.505855
vt 0.375000 0.487362
vt 0.369145 0.512638
vt 0.375000 0.512638
vt 0.373499 0.521185
vt 0.375000 0.521185
vt 0.375000 0.719341
vt 0.344341 0.750000
vt 0.375000 0.780659
vt 0.373499 0.728815
vt 0.375000 0.728815
vt 0.369145 0.737362
vt 0.375000 0.737362
vt 0.362362 0.744145
vt 0.375000 0.762638
vt 0.353815 0.748499
vt 0.375000 0.771185
vt 0.125000 0.530659
vt 0.375000 0.219341
vt 0.155659 0.500000
vt 0.375000 0.280659
vt 0.126501 0.521185
vt 0.375000 0.228815
vt 0.130855 0.512638
vt 0.375000 0.237362
vt 0.137638 0.505855
vt 0.375000 0.262638
vt 0.146185 0.501501
vt 0.375000 0.271185
vt 0.155659 0.750000
vt 0.375000 0.969341
vt 0.125000 0.719341
vt 0.375000 0.030659
vt 0.146185 0.748499
vt 0.375000 0.978815
vt 0.137638 0.744145
vt 0.375000 1.000000
vt 0.375000 0.000000
vt 0.130855 0.737362
vt 0.375000 0.012638
vt 0.126501 0.728815
vt 0.375000 0.021185
vt 0.638865 0.548732
vt 0.596468 0.530659
vt 0.631931 0.539815
vt 0.610787 0.530677
vt 0.673732 0.513865
vt 0.596468 0.469341
vt 0.664816 0.506931
vt 0.655081 0.500092
vt 0.625000 0.469919
vt 0.655659 0.500000
vt 0.625000 0.469341
vt 0.639327 0.524270
vt 0.596464 0.521185
vt 0.633112 0.522579
vt 0.610818 0.521217
vt 0.626658 0.520877
vt 0.625000 0.520877
vt 0.641466 0.516552
vt 0.596282 0.512638
vt 0.636623 0.514256
vt 0.630710 0.512923
vt 0.625000 0.512923
vt 0.631292 0.512202
vt 0.625000 0.511012
vt 0.641552 0.516466
vt 0.596282 0.487362
vt 0.639256 0.511623
vt 0.637202 0.506292
vt 0.625000 0.488988
vt 0.637923 0.505710
vt 0.625000 0.487077
vt 0.649271 0.514328
vt 0.596464 0.478815
vt 0.647580 0.508112
vt 0.645877 0.501658
vt 0.625000 0.479123
vt 0.646185 0.501501
vt 0.625000 0.478815
vt 0.673732 0.736135
vt 0.596489 0.780659
vt 0.664816 0.743069
vt 0.655084 0.749909
vt 0.625000 0.780084
vt 0.625000 0.780659
vt 0.655659 0.750000
vt 0.638865 0.701268
vt 0.596493 0.719341
vt 0.631931 0.710184
vt 0.610799 0.719323
vt 0.649266 0.735671
vt 0.596486 0.771185
vt 0.647578 0.741887
vt 0.646185 0.748499
vt 0.625000 0.771185
vt 0.645834 0.748321
vt 0.625000 0.770834
vt 0.641553 0.733533
vt 0.596477 0.762638
vt 0.639256 0.738377
vt 0.637881 0.744268
vt 0.625000 0.762881
vt 0.637202 0.743708
vt 0.625000 0.761012
vt 0.641467 0.733447
vt 0.596478 0.737362
vt 0.636623 0.735744
vt 0.631292 0.737798
vt 0.625000 0.738988
vt 0.630732 0.737119
vt 0.625000 0.737119
vt 0.639328 0.725733
vt 0.596488 0.728815
vt 0.633113 0.727422
vt 0.626679 0.729166
vt 0.625000 0.729166
vt 0.610826 0.728783
vt 0.826268 0.513865
vt 0.596493 0.280659
vt 0.835184 0.506931
vt 0.844916 0.500091
vt 0.625000 0.280084
vt 0.844341 0.500000
vt 0.625000 0.280659
vt 0.861135 0.548732
vt 0.596489 0.219341
vt 0.868069 0.539816
vt 0.874909 0.530084
vt 0.625000 0.219916
vt 0.625000 0.219341
vt 0.875000 0.530659
vt 0.850734 0.514328
vt 0.596488 0.271185
vt 0.852422 0.508112
vt 0.853815 0.501501
vt 0.625000 0.271185
vt 0.854166 0.501679
vt 0.625000 0.270834
vt 0.858447 0.516467
vt 0.596478 0.262638
vt 0.860744 0.511623
vt 0.862119 0.505732
vt 0.625000 0.262881
vt 0.862798 0.506292
vt 0.625000 0.261012
vt 0.858533 0.516553
vt 0.596477 0.237362
vt 0.863377 0.514256
vt 0.868708 0.512202
vt 0.625000 0.238988
vt 0.869268 0.512881
vt 0.625000 0.237119
vt 0.860671 0.524266
vt 0.596486 0.228815
vt 0.866887 0.522578
vt 0.873321 0.520834
vt 0.625000 0.229166
vt 0.873499 0.521185
vt 0.625000 0.228815
vt 0.861135 0.701268
vt 0.596489 0.030659
vt 0.868069 0.710184
vt 0.874909 0.719917
vt 0.625000 0.030084
vt 0.625000 0.030659
vt 0.875000 0.719341
vt 0.826268 0.736135
vt 0.596489 0.969341
vt 0.835184 0.743069
vt 0.844916 0.749909
vt 0.625000 0.969916
vt 0.625000 0.969341
vt 0.844341 0.750000
vt 0.860671 0.725733
vt 0.596485 0.021185
vt 0.866887 0.727422
vt 0.873321 0.729166
vt 0.625000 0.020834
vt 0.873499 0.728815
vt 0.625000 0.021185
vt 0.858533 0.733447
vt 0.596476 0.012638
vt 0.863377 0.735744
vt 0.868708 0.737798
vt 0.625000 0.011825
vt 0.869268 0.737119
vt 0.625000 0.012881
vt 0.858447 0.733533
vt 0.596476 1.000000
vt 0.596476 0.000000
vt 0.860744 0.738377
vt 0.862119 0.744268
vt 0.625000 0.999399
vt 0.862798 0.743708
vt 0.625000 0.000813
vt 0.850733 0.735672
vt 0.596485 0.978815
vt 0.852422 0.741888
vt 0.853815 0.748499
vt 0.625000 0.978815
vt 0.854166 0.748321
vt 0.625000 0.979685
s 0
usemtl Material
f 13/23/1 15/27/1 16/29/1 17/31/1 18/33/1 14/25/1 1/1/1 3/4/1 4/6/1 5/8/1 6/10/1 2/3/1 7/12/1 9/15/1 10/17/1 11/19/1 12/21/1 8/13/1 19/35/1 21/39/1 22/41/1 23/44/1 24/46/1 20/37/1
f 82/139/2 18/34/2 17/32/2 86/146/2
f 70/119/3 9/16/3 7/12/3 54/94/3
f 46/80/4 3/5/4 1/2/4 30/53/4
f 25/48/5 33/59/5 37/65/5 41/72/5 45/79/5 29/52/5 73/124/5 81/138/5 85/145/5 89/152/5 93/159/5 77/131/5 97/166/5 105/180/5 109/187/5 113/194/5 117/202/5 101/173/5 49/86/5 57/97/5 61/104/5 65/111/5 69/118/5 53/93/5
f 2/3/6 26/49/6 54/94/6 7/12/6
f 38/66/7 5/9/7 4/7/7 42/73/7
f 42/73/8 4/7/8 3/5/8 46/80/8
f 50/87/9 8/14/9 12/22/9 58/98/9
f 14/26/10 74/125/10 30/53/10 1/2/10
f 23/45/11 110/188/11 106/181/11 24/47/11
f 21/40/12 118/203/12 114/195/12 22/42/12
f 22/43/13 114/196/13 110/188/13 23/45/13
f 19/36/14 102/174/14 118/203/14 21/40/14
f 8/14/15 50/87/15 102/174/15 19/36/15
f 62/105/16 11/20/16 10/18/16 66/112/16
f 66/112/17 10/18/17 9/16/17 70/119/17
f 74/125/18 14/26/18 18/34/18 82/139/18
f 58/98/19 12/22/19 11/20/19 62/105/19
f 94/160/20 15/28/20 13/24/20 78/132/20
f 86/146/21 17/32/21 16/30/21 90/153/21
f 90/153/22 16/30/22 15/28/22 94/160/22
f 24/47/23 106/181/23 98/167/23 20/38/23
f 20/38/24 98/167/24 78/132/24 13/24/24
f 34/60/25 6/11/25 5/9/25 38/66/25
f 33/59/26 25/48/26 27/50/26 35/61/26
f 35/61/27 27/50/27 28/51/27 36/62/27
f 36/62/28 28/51/28 26/49/28 34/60/28
f 37/65/29 33/59/29 35/61/29 39/67/29
f 39/67/30 35/61/30 36/63/30 40/68/30
f 40/69/31 36/64/31 34/60/31 38/66/31
f 41/72/32 37/65/32 39/67/32 43/74/32
f 43/74/33 39/67/33 40/70/33 44/75/33
f 44/76/34 40/71/34 38/66/34 42/73/34
f 45/79/35 41/72/35 43/74/35 47/81/35
f 47/81/36 43/74/36 44/77/36 48/82/36
f 48/83/37 44/78/37 42/73/37 46/80/37
f 29/52/38 45/79/38 47/81/38 31/54/38
f 31/54/39 47/81/39 48/84/39 32/55/39
f 32/56/40 48/85/40 46/80/40 30/53/40
f 101/173/41 117/202/41 119/204/41 103/175/41
f 103/175/42 119/204/42 120/205/42 104/176/42
f 104/177/43 120/206/43 118/203/43 102/174/43
f 117/202/44 113/194/44 115/197/44 119/204/44
f 119/204/45 115/197/45 116/198/45 120/207/45
f 120/208/46 116/199/46 114/195/46 118/203/46
f 113/194/47 109/187/47 111/189/47 115/197/47
f 115/197/48 111/189/48 112/190/48 116/200/48
f 116/201/49 112/191/49 110/188/49 114/196/49
f 109/187/50 105/180/50 107/182/50 111/189/50
f 111/189/51 107/182/51 108/183/51 112/192/51
f 112/193/52 108/184/52 106/181/52 110/188/52
f 105/180/53 97/166/53 99/168/53 107/182/53
f 107/182/54 99/168/54 100/169/54 108/185/54
f 108/186/55 100/170/55 98/167/55 106/181/55
f 57/97/56 49/86/56 51/88/56 59/99/56
f 59/99/57 51/88/57 52/89/57 60/100/57
f 60/101/58 52/90/58 50/87/58 58/98/58
f 61/104/59 57/97/59 59/99/59 63/106/59
f 63/106/60 59/99/60 60/102/60 64/107/60
f 64/108/61 60/103/61 58/98/61 62/105/61
f 65/111/62 61/104/62 63/106/62 67/113/62
f 67/113/63 63/106/63 64/109/63 68/114/63
f 68/115/64 64/110/64 62/105/64 66/112/64
f 69/118/65 65/111/65 67/113/65 71/120/65
f 71/120/66 67/113/66 68/116/66 72/121/66
f 72/122/67 68/117/67 66/112/67 70/119/67
f 53/93/68 69/118/68 71/120/68 55/95/68
f 55/95/69 71/120/69 72/123/69 56/96/69
f 56/96/70 72/123/70 70/119/70 54/94/70
f 81/138/71 73/124/71 75/126/71 83/140/71
f 83/140/72 75/126/72 76/127/72 84/141/72
f 84/142/73 76/128/73 74/125/73 82/139/73
f 85/145/74 81/138/74 83/140/74 87/147/74
f 87/147/75 83/140/75 84/143/75 88/148/75
f 88/149/76 84/144/76 82/139/76 86/146/76
f 89/152/77 85/145/77 87/147/77 91/154/77
f 91/154/78 87/147/78 88/150/78 92/155/78
f 92/156/79 88/151/79 86/146/79 90/153/79
f 93/159/80 89/152/80 91/154/80 95/161/80
f 95/161/81 91/154/81 92/157/81 96/162/81
f 96/163/82 92/158/82 90/153/82 94/160/82
f 77/131/83 93/159/83 95/161/83 79/133/83
f 79/133/84 95/161/84 96/164/84 80/134/84
f 80/135/85 96/165/85 94/160/85 78/132/85
f 73/124/86 29/52/86 31/54/86 75/126/86
f 75/126/87 31/54/87 32/57/87 76/129/87
f 76/130/88 32/58/88 30/53/88 74/125/88
f 25/48/89 53/93/89 55/95/89 27/50/89
f 27/50/90 55/95/90 56/96/90 28/51/90
f 28/51/91 56/96/91 54/94/91 26/49/91
f 78/132/92 98/167/92 100/171/92 80/136/92
f 80/137/93 100/172/93 99/168/93 79/133/93
f 79/133/94 99/168/94 97/166/94 77/131/94
f 102/174/95 50/87/95 52/91/95 104/178/95
f 104/179/96 52/92/96 51/88/96 103/175/96
f 103/175/97 51/88/97 49/86/97 101/173/97
f 26/49/98 2/3/98 6/11/98 34/60/98
